<svg fill="none" height="864" viewBox="0 0 864 864" width="864" xmlns="http://www.w3.org/2000/svg"><path d="m96 0c-53.0193 0-96 42.9807-96 96v672c0 53.019 42.9807 96 96 96h672c53.019 0 96-42.981 96-96v-672c0-53.0193-42.981-96-96-96z" fill="#ec4899"/><g fill="#fff"><path d="m240 384c0-26.51-21.49-48-48-48s-48 21.49-48 48v168c0 92.784 75.216 168 168 168 47.009 0 89.508-19.307 120-50.424 30.492 31.117 72.991 50.424 120 50.424 92.784 0 168-75.216 168-168v-168c0-26.51-21.49-48-48-48s-48 21.49-48 48v168c0 39.765-32.236 72-72 72s-72-32.236-72-72v-168c0-26.51-21.49-48-48-48s-48 21.49-48 48v168c0 39.764-32.236 72-72 72s-72-32.236-72-72z"/><path d="m382 192c0-27.614 22.386-50 50-50s50 22.386 50 50-22.386 50-50 50-50-22.386-50-50z"/><path d="m144 156c0-6.627 5.373-12 12-12h72c6.627 0 12 5.373 12 12v72c0 6.627-5.373 12-12 12h-72c-6.627 0-12-5.373-12-12z"/><path d="m682.49 150.882c-4.572-8.23-16.408-8.23-20.98 0l-39.606 71.29c-4.443 7.999 1.34 17.828 10.49 17.828h79.212c9.15 0 14.933-9.829 10.49-17.828z"/></g></svg>